<svg xmlns="http://www.w3.org/2000/svg" viewBox="0 0 200 220"><defs><mask id="a"><path fill="#fff" d="M0 0h200v220H0z"/><rect width="12" height="14" x="68" y="99" rx="1"/><rect width="12" height="14" x="118" y="99" rx="1"/><path d="M97 104h12v16H97z"/><ellipse cx="103" cy="104" rx="6" ry="4"/></mask><mask id="b"><path fill="#fff" d="M142 78h20v42h-20z"/></mask><mask id="c"><path fill="#fff" d="M60 92h82v28H60z"/><rect width="12" height="14" x="68" y="99" rx="1"/><rect width="12" height="14" x="118" y="99" rx="1"/><path d="M97 104h12v16H97z"/><ellipse cx="103" cy="104" rx="6" ry="4"/></mask></defs><circle cx="100" cy="110" r="97" fill="none" stroke="#c9a84c" stroke-width="2"/><circle cx="100" cy="110" r="92" fill="none" stroke="#c9a84c" stroke-width=".75"/><text x="100" y="36" fill="#c9a84c" font-family="'CAC Champagne', 'Brush Script MT', 'Palace Script MT', cursive" font-size="13" font-style="italic" letter-spacing="1" text-anchor="middle">Château</text><path stroke="#c9a84c" stroke-width=".75" d="M58 46h29"/><path fill="#c9a84c" d="m100 42.5 3.5 3.5-3.5 3.5-3.5-3.5z"/><path stroke="#c9a84c" stroke-width=".75" d="M113 46h29"/><path stroke="#c9a84c" stroke-width=".7" d="M152 60v-4"/><ellipse cx="151.5" cy="54" fill="#c9a84c" rx="2.2" ry="1.3"/><path fill="#c9a84c" d="m149.5 54.5-3-2 3 3z"/><circle cx="153.9" cy="52.5" r="1.3" fill="#c9a84c"/><path fill="#c9a84c" d="m153.2 51.6.8-1.4 1.2 1.1-1.2.7zM155.1 52.5l1.7.5-1.7.4zM155 53.4l-.5.9 1.3-.3z"/><circle cx="40" cy="91" r="13" fill="#c9a84c" opacity=".9"/><circle cx="31" cy="85" r="9" fill="#c9a84c" opacity=".9"/><circle cx="49" cy="85" r="9" fill="#c9a84c" opacity=".9"/><circle cx="40" cy="77" r="10" fill="#c9a84c" opacity=".9"/><path fill="#c9a84c" d="M37 104h5v16h-5z"/><g fill="#c9a84c" mask="url(#a)"><path d="M60 92h82l-8-16H68zM60 92h82v28H60zM142 78h20l-10-18zM142 78h20v42h-20z"/></g><g fill="none" stroke="rgba(255,246,205,0.38)" stroke-width=".55" mask="url(#b)"><path d="M142 85h20M142 92h20M142 99h20M142 106h20M142 113h20M152 78v7M147 85v7M157 85v7M152 92v7M147 99v7M157 99v7M152 106v7M147 113v7M157 113v7"/></g><g fill="none" stroke="rgba(255,246,205,0.38)" stroke-width=".55" mask="url(#c)"><path d="M60 97h82M60 102h82M60 107h82M60 112h82M60 117h82M72 93v4M84 93v4M96 93v4M108 93v4M120 93v4M132 93v4M66 97v5M78 97v5M90 97v5M114 97v5M126 97v5M138 97v5M72 102v5M84 102v5M120 102v5M132 102v5M66 107v5M78 107v5M90 107v5M114 107v5M126 107v5M138 107v5M72 112v5M84 112v5M96 112v5M108 112v5M120 112v5M132 112v5"/></g><path stroke="#c9a84c" stroke-linecap="round" stroke-width=".75" d="M30 133h140" opacity=".65"/><path stroke="#c9a84c" stroke-linecap="round" stroke-width="1.1" d="M37 140v-7"/><path stroke="#c9a84c" stroke-linecap="round" stroke-width=".85" d="m37 133-6-6M37 133l6-6"/><circle cx="31" cy="127" r="1.7" fill="#c9a84c"/><circle cx="43" cy="127" r="1.7" fill="#c9a84c"/><path stroke="#c9a84c" stroke-linecap="round" stroke-width="1.1" d="M58 140v-7"/><path stroke="#c9a84c" stroke-linecap="round" stroke-width=".85" d="m58 133-6-6M58 133l6-6"/><circle cx="52" cy="127" r="1.7" fill="#c9a84c"/><circle cx="64" cy="127" r="1.7" fill="#c9a84c"/><path stroke="#c9a84c" stroke-linecap="round" stroke-width="1.1" d="M79 140v-7"/><path stroke="#c9a84c" stroke-linecap="round" stroke-width=".85" d="m79 133-6-6M79 133l6-6"/><circle cx="73" cy="127" r="1.7" fill="#c9a84c"/><circle cx="85" cy="127" r="1.7" fill="#c9a84c"/><path stroke="#c9a84c" stroke-linecap="round" stroke-width="1.1" d="M100 140v-7"/><path stroke="#c9a84c" stroke-linecap="round" stroke-width=".85" d="m100 133-6-6M100 133l6-6"/><circle cx="94" cy="127" r="1.7" fill="#c9a84c"/><circle cx="106" cy="127" r="1.7" fill="#c9a84c"/><path stroke="#c9a84c" stroke-linecap="round" stroke-width="1.1" d="M121 140v-7"/><path stroke="#c9a84c" stroke-linecap="round" stroke-width=".85" d="m121 133-6-6M121 133l6-6"/><circle cx="115" cy="127" r="1.7" fill="#c9a84c"/><circle cx="127" cy="127" r="1.7" fill="#c9a84c"/><path stroke="#c9a84c" stroke-linecap="round" stroke-width="1.1" d="M142 140v-7"/><path stroke="#c9a84c" stroke-linecap="round" stroke-width=".85" d="m142 133-6-6M142 133l6-6"/><circle cx="136" cy="127" r="1.7" fill="#c9a84c"/><circle cx="148" cy="127" r="1.7" fill="#c9a84c"/><path stroke="#c9a84c" stroke-linecap="round" stroke-width="1.1" d="M163 140v-7"/><path stroke="#c9a84c" stroke-linecap="round" stroke-width=".85" d="m163 133-6-6M163 133l6-6"/><circle cx="157" cy="127" r="1.7" fill="#c9a84c"/><circle cx="169" cy="127" r="1.7" fill="#c9a84c"/><path stroke="#c9a84c" stroke-width=".75" d="M58 152h29"/><path fill="#c9a84c" d="m100 148.5 3.5 3.5-3.5 3.5-3.5-3.5z"/><path stroke="#c9a84c" stroke-width=".75" d="M113 152h29"/><text x="100" y="168" fill="#c9a84c" font-family="'CAC Champagne', 'Brush Script MT', 'Palace Script MT', cursive" font-size="13" font-style="italic" letter-spacing="2" text-anchor="middle">Crabitan</text><circle cx="96" cy="176" r="1.1" fill="#c9a84c" opacity=".6"/><circle cx="100" cy="176" r="1.1" fill="#c9a84c" opacity=".6"/><circle cx="104" cy="176" r="1.1" fill="#c9a84c" opacity=".6"/><text x="100" y="191" fill="#c9a84c" font-family="'CAC Champagne', 'Brush Script MT', 'Palace Script MT', cursive" font-size="13" font-style="italic" letter-spacing="2" text-anchor="middle">Bellevue</text></svg>
